<svg width="370" height="210" viewBox="0 0 370 210" fill="none" xmlns="http://www.w3.org/2000/svg">
<g clip-path="url(#clip0_6849_9603)">
<g filter="url(#filter0_b_6849_9603)">
<rect width="370" height="210" rx="20" fill="url(#paint0_linear_6849_9603)"/>
</g>
<g clip-path="url(#clip1_6849_9603)">
<path d="M299.1 0C259.826 0 227.988 31.549 227.988 70.4668H299.1L299.1 0Z" fill="#1D1D35"/>
<path d="M299.1 140.548C259.826 140.548 227.988 172.097 227.988 211.015H299.1L299.1 140.548Z" fill="url(#paint1_linear_6849_9603)"/>
<path opacity="0.3" d="M227.988 70.4683C227.988 109.172 259.826 140.548 299.1 140.548L299.1 70.4683L227.988 70.4683Z" fill="#1D1D35"/>
<path opacity="0.3" d="M370.026 140.744C330.752 140.744 298.914 172.12 298.914 210.824H370.026L370.026 140.744Z" fill="#1D1D35"/>
<path d="M369.813 140.544C369.813 101.841 338.15 70.4648 299.092 70.4648L299.092 140.544H369.813Z" fill="white" fill-opacity="0.2"/>
</g>
<g filter="url(#filter1_d_6849_9603)">
<path d="M33.1674 126.323C32.7364 126.611 32.1526 126.96 32.1595 127.454C32.1675 128.03 32.7118 128.523 33.454 128.523C33.9915 128.523 34.447 128.153 34.8271 127.886L37.1843 126.241L37.2256 129.202C37.2347 129.86 37.5982 130.23 38.5195 130.23C39.4408 130.23 39.794 129.86 39.7848 129.202L39.7436 126.241L42.1466 127.886C42.5342 128.153 43 128.523 43.5375 128.523C44.2797 128.523 44.8102 128.03 44.8022 127.454C44.7954 126.96 44.2019 126.611 43.7628 126.323L40.3781 124.02L44.0282 121.49C44.3577 121.264 44.712 120.976 44.7069 120.606C44.6989 120.03 44.1543 119.516 43.4121 119.516C43.0026 119.516 42.6725 119.701 42.3938 119.907L39.6817 121.799L39.6399 118.797C39.6308 118.139 39.2673 117.768 38.346 117.768C37.4247 117.768 37.0715 118.139 37.0807 118.797L37.1225 121.799L34.3577 119.907C34.0734 119.701 33.7381 119.516 33.3286 119.516C32.5864 119.516 32.0561 120.03 32.0641 120.606C32.0693 120.976 32.4316 121.264 32.7675 121.49L36.488 124.02L33.1674 126.323Z" fill="white"/>
<path d="M51.5871 126.323C51.156 126.611 50.5723 126.96 50.5791 127.454C50.5872 128.03 51.1315 128.523 51.8737 128.523C52.4111 128.523 52.8666 128.153 53.2468 127.886L55.604 126.241L55.6452 129.202C55.6544 129.86 56.0178 130.23 56.9392 130.23C57.8605 130.23 58.2136 129.86 58.2045 129.202L58.1632 126.241L60.5663 127.886C60.9539 128.153 61.4197 128.523 61.9571 128.523C62.6993 128.523 63.2299 128.03 63.2219 127.454C63.215 126.96 62.6215 126.611 62.1824 126.323L58.7977 124.02L62.4478 121.49C62.7774 121.264 63.1317 120.976 63.1265 120.606C63.1185 120.03 62.5739 119.516 61.8317 119.516C61.4222 119.516 61.0921 119.701 60.8135 119.907L58.1014 121.799L58.0596 118.797C58.0504 118.139 57.687 117.768 56.7657 117.768C55.8443 117.768 55.4912 118.139 55.5003 118.797L55.5421 121.799L52.7774 119.907C52.493 119.701 52.1577 119.516 51.7483 119.516C51.0061 119.516 50.4758 120.03 50.4838 120.606C50.489 120.976 50.8513 121.264 51.1871 121.49L54.9077 124.02L51.5871 126.323Z" fill="white"/>
<path d="M70.0068 126.323C69.5757 126.611 68.9919 126.96 68.9988 127.454C69.0068 128.03 69.5511 128.523 70.2933 128.523C70.8308 128.523 71.2863 128.153 71.6664 127.886L74.0237 126.241L74.0649 129.202C74.074 129.86 74.4375 130.23 75.3588 130.23C76.2802 130.23 76.6333 129.86 76.6241 129.202L76.5829 126.241L78.9859 127.886C79.3735 128.153 79.8394 128.523 80.3768 128.523C81.119 128.523 81.6496 128.03 81.6415 127.454C81.6347 126.96 81.0412 126.611 80.6021 126.323L77.2174 124.02L80.8675 121.49C81.1971 121.264 81.5513 120.976 81.5462 120.606C81.5382 120.03 80.9936 119.516 80.2514 119.516C79.8419 119.516 79.5118 119.701 79.2331 119.907L76.5211 121.799L76.4793 118.797C76.4701 118.139 76.1066 117.768 75.1853 117.768C74.264 117.768 73.9108 118.139 73.92 118.797L73.9618 121.799L71.1971 119.907C70.9127 119.701 70.5774 119.516 70.1679 119.516C69.4257 119.516 68.8954 120.03 68.9035 120.606C68.9086 120.976 69.2709 121.264 69.6068 121.49L73.3273 124.02L70.0068 126.323Z" fill="white"/>
<path d="M88.4264 126.323C87.9954 126.611 87.4116 126.96 87.4185 127.454C87.4265 128.03 87.9708 128.523 88.713 128.523C89.2504 128.523 89.7059 128.153 90.0861 127.886L92.4433 126.241L92.4845 129.202C92.4937 129.86 92.8572 130.23 93.7785 130.23C94.6998 130.23 95.053 129.86 95.0438 129.202L95.0026 126.241L97.4056 127.886C97.7932 128.153 98.259 128.523 98.7965 128.523C99.5386 128.523 100.069 128.03 100.061 127.454C100.054 126.96 99.4608 126.611 99.0218 126.323L95.6371 124.02L99.2872 121.49C99.6167 121.264 99.971 120.976 99.9659 120.606C99.9578 120.03 99.4132 119.516 98.671 119.516C98.2616 119.516 97.9314 119.701 97.6528 119.907L94.9407 121.799L94.8989 118.797C94.8898 118.139 94.5263 117.768 93.605 117.768C92.6836 117.768 92.3305 118.139 92.3397 118.797L92.3815 121.799L89.6167 119.907C89.3323 119.701 88.997 119.516 88.5876 119.516C87.8454 119.516 87.3151 120.03 87.3231 120.606C87.3283 120.976 87.6906 121.264 88.0264 121.49L91.747 124.02L88.4264 126.323Z" fill="white"/>
<path d="M129.22 118.056H135.49C136.155 118.056 136.766 117.768 136.755 117.028C136.745 116.288 136.127 116 135.461 116H126.632L126.758 125.027H134.307L134.376 129.942H128.464C128.055 129.942 127.462 129.654 127.102 129.531L126.33 129.263C126.047 129.161 125.816 129.099 125.509 129.099C124.844 129.099 124.288 129.593 124.295 130.127C124.305 130.847 125.075 131.032 125.77 131.279L126.747 131.628C127.39 131.855 127.776 131.998 128.441 131.998H134.123C135.044 131.998 135.709 131.916 136.34 131.299C136.87 130.785 136.941 130.333 136.932 129.695L136.87 125.295C136.86 124.575 136.777 124.081 136.053 123.547C135.432 123.074 134.816 122.971 133.997 122.971H129.288L129.22 118.056Z" fill="white"/>
<path d="M145.106 118.056C145.848 118.056 146.38 117.645 146.371 117.028C146.364 116.494 145.819 116 145.154 116H143.618C142.723 116 142.526 116.555 142.532 117.028L142.723 130.703C142.736 131.649 143.201 131.998 144.404 131.998H153.72C154.872 131.998 155.379 131.669 155.365 130.703L155.301 126.097C155.288 125.151 155.026 124.719 153.747 124.719H145.199L145.106 118.056ZM152.751 126.775L152.796 129.942H145.271L145.227 126.775L152.751 126.775Z" fill="white"/>
<path d="M171.05 118.056L171.089 120.894C171.102 121.799 171.153 121.778 170.316 122.375L166.819 124.822C166.185 125.274 166.161 125.336 166.17 126.014L166.239 130.97C166.248 131.628 166.612 131.998 167.533 131.998C168.454 131.998 168.807 131.628 168.798 130.97L168.743 126.981C168.733 126.261 168.783 126.22 169.442 125.747L172.99 123.259C173.7 122.765 173.673 122.683 173.663 121.963L173.58 116H162.217C161.398 116 160.946 116.576 160.952 117.028L160.966 118.056C160.973 118.509 161.441 119.085 162.26 119.085C163.079 119.085 163.532 118.509 163.526 118.056H171.05Z" fill="white"/>
<path d="M184.573 122.971L184.504 118.056H186.91L186.979 122.971H184.573ZM183.196 116C182.326 116 181.923 116.494 181.931 117.028L182.014 122.971C181.22 122.971 180.609 123.197 180.153 123.547C179.698 123.896 179.474 124.41 179.483 125.048L179.551 129.942C179.569 131.196 180.553 131.998 182.139 131.998H189.664C191.25 131.998 192.212 131.196 192.194 129.942L192.126 125.048C192.117 124.41 191.88 123.896 191.414 123.547C190.949 123.197 190.331 122.971 189.538 122.971L189.455 117.028C189.448 116.494 189.031 116 188.161 116H183.196ZM182.111 129.942L182.042 125.027L189.566 125.027L189.635 129.942H182.111Z" fill="white"/>
</g>
<g opacity="0.5">
<rect width="370" height="210" fill="url(#paint2_linear_6849_9603)" style="mix-blend-mode:overlay"/>
</g>
<g filter="url(#filter2_d_6849_9603)">
<path d="M36.368 167.13C35.64 167.13 34.99 166.948 34.418 166.584C33.846 166.211 33.3953 165.674 33.066 164.972C32.7367 164.261 32.572 163.421 32.572 162.45C32.572 161.479 32.7367 160.643 33.066 159.941C33.3953 159.23 33.846 158.693 34.418 158.329C34.99 157.956 35.64 157.77 36.368 157.77C37.096 157.77 37.746 157.956 38.318 158.329C38.8987 158.693 39.3537 159.23 39.683 159.941C40.0123 160.643 40.177 161.479 40.177 162.45C40.177 163.421 40.0123 164.261 39.683 164.972C39.3537 165.674 38.8987 166.211 38.318 166.584C37.746 166.948 37.096 167.13 36.368 167.13ZM36.368 165.661C37.018 165.661 37.5293 165.392 37.902 164.855C38.2833 164.318 38.474 163.516 38.474 162.45C38.474 161.384 38.2833 160.582 37.902 160.045C37.5293 159.508 37.018 159.239 36.368 159.239C35.7267 159.239 35.2153 159.508 34.834 160.045C34.4613 160.582 34.275 161.384 34.275 162.45C34.275 163.516 34.4613 164.318 34.834 164.855C35.2153 165.392 35.7267 165.661 36.368 165.661ZM44.1137 161.423C45.3964 161.423 46.3454 161.674 46.9607 162.177C47.5761 162.671 47.8837 163.347 47.8837 164.205C47.8837 164.751 47.7494 165.245 47.4807 165.687C47.2121 166.129 46.8091 166.48 46.2717 166.74C45.7344 167 45.0714 167.13 44.2827 167.13C43.6327 167.13 43.0044 167.039 42.3977 166.857C41.7911 166.666 41.2797 166.406 40.8637 166.077L41.5787 164.764C41.9167 165.041 42.3197 165.262 42.7877 165.427C43.2644 165.583 43.7541 165.661 44.2567 165.661C44.8547 165.661 45.3227 165.54 45.6607 165.297C46.0074 165.046 46.1807 164.703 46.1807 164.27C46.1807 163.802 45.9944 163.451 45.6217 163.217C45.2577 162.974 44.6294 162.853 43.7367 162.853H41.5397L42.0077 157.9H47.3507V159.317H43.4377L43.2427 161.423H44.1137ZM55.6746 156.054H57.1306L52.8406 168.3H51.3846L55.6746 156.054ZM67.2499 165.57V167H60.5419V165.869L64.1559 162.437C64.5633 162.047 64.8363 161.709 64.9749 161.423C65.1223 161.128 65.1959 160.838 65.1959 160.552C65.1959 160.127 65.0529 159.802 64.7669 159.577C64.4809 159.352 64.0606 159.239 63.5059 159.239C62.5786 159.239 61.8679 159.555 61.3739 160.188L60.1909 159.278C60.5463 158.801 61.0229 158.433 61.6209 158.173C62.2276 157.904 62.9036 157.77 63.6489 157.77C64.6369 157.77 65.4256 158.004 66.0149 158.472C66.6043 158.94 66.8989 159.577 66.8989 160.383C66.8989 160.877 66.7949 161.341 66.5869 161.774C66.3789 162.207 65.9803 162.701 65.3909 163.256L62.9599 165.57H67.2499ZM76.0946 164.933H74.4826V167H72.8446V164.933H67.8526V163.763L72.3376 157.9H74.1446L69.9196 163.503H72.8966V161.67H74.4826V163.503H76.0946V164.933Z" fill="white"/>
</g>
</g>
<rect x="1" y="1" width="368" height="208" rx="19" stroke="url(#paint3_linear_6849_9603)" stroke-opacity="0.3" stroke-width="2" style="mix-blend-mode:overlay"/>
<defs>
<filter id="filter0_b_6849_9603" x="-37" y="-37" width="444" height="284" filterUnits="userSpaceOnUse" color-interpolation-filters="sRGB">
<feFlood flood-opacity="0" result="BackgroundImageFix"/>
<feGaussianBlur in="BackgroundImage" stdDeviation="18.5"/>
<feComposite in2="SourceAlpha" operator="in" result="effect1_backgroundBlur_6849_9603"/>
<feBlend mode="normal" in="SourceGraphic" in2="effect1_backgroundBlur_6849_9603" result="shape"/>
</filter>
<filter id="filter1_d_6849_9603" x="31" y="116" width="162.223" height="17.998" filterUnits="userSpaceOnUse" color-interpolation-filters="sRGB">
<feFlood flood-opacity="0" result="BackgroundImageFix"/>
<feColorMatrix in="SourceAlpha" type="matrix" values="0 0 0 0 0 0 0 0 0 0 0 0 0 0 0 0 0 0 127 0" result="hardAlpha"/>
<feOffset dy="1"/>
<feGaussianBlur stdDeviation="0.5"/>
<feComposite in2="hardAlpha" operator="out"/>
<feColorMatrix type="matrix" values="0 0 0 0 0 0 0 0 0 0 0 0 0 0 0 0 0 0 0.3 0"/>
<feBlend mode="normal" in2="BackgroundImageFix" result="effect1_dropShadow_6849_9603"/>
<feBlend mode="normal" in="SourceGraphic" in2="effect1_dropShadow_6849_9603" result="shape"/>
</filter>
<filter id="filter2_d_6849_9603" x="31" y="154" width="47" height="18" filterUnits="userSpaceOnUse" color-interpolation-filters="sRGB">
<feFlood flood-opacity="0" result="BackgroundImageFix"/>
<feColorMatrix in="SourceAlpha" type="matrix" values="0 0 0 0 0 0 0 0 0 0 0 0 0 0 0 0 0 0 127 0" result="hardAlpha"/>
<feOffset dy="1"/>
<feGaussianBlur stdDeviation="0.5"/>
<feComposite in2="hardAlpha" operator="out"/>
<feColorMatrix type="matrix" values="0 0 0 0 0 0 0 0 0 0 0 0 0 0 0 0 0 0 0.3 0"/>
<feBlend mode="normal" in2="BackgroundImageFix" result="effect1_dropShadow_6849_9603"/>
<feBlend mode="normal" in="SourceGraphic" in2="effect1_dropShadow_6849_9603" result="shape"/>
</filter>
<linearGradient id="paint0_linear_6849_9603" x1="185" y1="0" x2="185" y2="210" gradientUnits="userSpaceOnUse">
<stop stop-color="#1C1D24"/>
<stop offset="1" stop-color="#3A5A63"/>
</linearGradient>
<linearGradient id="paint1_linear_6849_9603" x1="263.544" y1="140.548" x2="251.168" y2="278.686" gradientUnits="userSpaceOnUse">
<stop stop-color="#1B1B1D"/>
<stop offset="1" stop-color="#1B1B1D" stop-opacity="0"/>
</linearGradient>
<linearGradient id="paint2_linear_6849_9603" x1="0" y1="0" x2="347.133" y2="242.705" gradientUnits="userSpaceOnUse">
<stop stop-color="white"/>
<stop offset="1" stop-opacity="0"/>
</linearGradient>
<linearGradient id="paint3_linear_6849_9603" x1="-8.88254e-06" y1="-10.8889" x2="179.437" y2="177.898" gradientUnits="userSpaceOnUse">
<stop stop-color="white"/>
<stop offset="0.556633" stop-color="white" stop-opacity="0"/>
</linearGradient>
<clipPath id="clip0_6849_9603">
<rect width="370" height="210" rx="20" fill="white"/>
</clipPath>
<clipPath id="clip1_6849_9603">
<rect width="142.029" height="210" fill="white" transform="translate(228)"/>
</clipPath>
</defs>
</svg>
